<svg xmlns="http://www.w3.org/2000/svg" data-name="Layer 1" viewBox="0 0 100 100" x="0px" y="0px"><title>gly</title><path d="M8.98523,28.39935v64.9599A1.6408,1.6408,0,0,0,10.626,95H61.37616a1.64079,1.64079,0,0,0,1.64075-1.64075V47.684H47.38525a5.29948,5.29948,0,0,1-5.29382-5.29382V26.75861H10.626A1.64084,1.64084,0,0,0,8.98523,28.39935Z"/><path d="M45.65375,42.3894a1.72645,1.72645,0,0,0,1.73083,1.73084H62.98584L45.65375,26.76843Z"/><path d="M90.9837,22.36194,73.652,5.00977V20.6311a1.72644,1.72644,0,0,0,1.73077,1.73084Z"/><path d="M38.62512,5a1.64074,1.64074,0,0,0-1.64074,1.64075V23.16809h10.16L66.617,42.62854V73.24268H89.37408a1.64074,1.64074,0,0,0,1.64069-1.64075V25.92572H75.38348a5.29949,5.29949,0,0,1-5.2937-5.29395V5Z"/></svg>